_________________________  Visit us at _________________________
  
http://p2pdl.com  ____________________________  http://p2pdl.com


Cirque Du Soleil Worlds Away 2012 BRRip 720p x264 AAC - PRiSTiNE

Genre: Fantasy
Plot: A young woman is entranced by an Aerialist. When they fall 
into the dreamlike world of Cirque du Soleil and are separated, 
they travel through the different tent worlds trying to find each other.
Director: Andrew Adamson
Stars: Erica Linz, Igor Zaripov, Lutz Halbhubner
Rated: Rated PG for some dramatic images and mild sensuality

Info: 
http://www.imdb.com/title/tt1386932/

General
Complete name                  : Cirque Du Soleil Worlds Away 2012 BRRip 720p x264 AAC - PRiSTiNE.mp4
Format                         : MPEG-4
Format profile                 : Base Media
File size                      : 523 MiB
Duration                       : 1h 31mn
Overall bit rate mode          : Variable
Overall bit rate               : 802 Kbps

Source                         : BluRay.720p.DTS.x264-CHD (Thanks)

Video
ID                             : 1
Format                         : AVC
Format/Info                    : Advanced Video Codec
Format profile                 : High 10@L4.1
Duration                       : 1h 31mn
Bit rate                       : 715 Kbps
Width                          : 1 280 pixels
Height                         : 720 pixels
Display aspect ratio           : 16:9
Frame rate mode                : Constant
Frame rate                     : 23.976 fps
Color space                    : YUV
Chroma subsampling             : 4:2:0
Bit depth                      : 10 bits
Scan type                      : Progressive
Bits/(Pixel*Frame)             : 0.032
Stream size                    : 466 MiB (89%)
Writing library                : x264 core 129 r2245 bc13772

Audio
Format                         : AAC
Bit rate mode                  : Variable
Bit rate                       : 83.8 Kbps
Channel(s)                     : 2 channels
Channel positions              : Front: L R
Sampling rate                  : 48.0 KHz / 24.0 KHz
Stream size                    : 54.7 MiB (10%)
Language                       : English

Subtitle                       : Yes (English)

Screens: 
http://imgr.us/images/zaw5lwo45kgb1mqgklmp.jpg 
http://imgr.us/images/tx5ek06bbug5us87nzit.jpg 
http://imgr.us/images/kzin09giuro6r06us8o.jpg 
http://imgr.us/images/pqvjznsl9t3o4do32m6o.jpg

Thumbs: 
http://imgr.us/images/1g8prmv04gt3coyv2hyz.jpg
----------------------------------------------------------------------------------------------------
Encoded using revolutionary 10bit encoding, which enables us to provide you more crispier 
and sharper images at small sizes, just make sure you follow our instructions without a fault.
Recommend to you to use latest version of VLC player. Install K-Lite Codec Pack or shark007 codecs
in case of any kind of problem in playback (For non-VLC Media Player users). Alternatively, install
Core AVC codecs, the fastest decoder that there is coupled with Community Center Codec Pack and play
on Windows Media Player Classic. Check sample to be sure.
Enjoy!